<svg width="60" height="60" viewBox="0 0 60 60" fill="none" xmlns="http://www.w3.org/2000/svg">
  <rect width="60" height="60" fill="transparent" />
  <path d="M23.0517 20.9846L23.0513 20.9847C21.8536 21.3246 20.4721 20.9326 19.167 19.7737C17.8656 18.6181 16.7359 16.7668 16.1555 14.4747C15.5753 12.1833 15.676 9.97288 16.2628 8.26686C16.8533 6.54985 17.8829 5.46157 19.0918 5.11907C20.2903 4.77948 21.672 5.1717 22.9768 6.33033C24.2781 7.48576 25.4076 9.33679 25.988 11.629C26.5682 13.9204 26.4674 16.1307 25.8807 17.8368C25.2902 19.5538 24.2606 20.6421 23.0517 20.9846ZM10.7249 48.3818C10.7249 46.3972 11.4001 44.0403 12.6019 41.582C13.7981 39.1352 15.4858 36.6498 17.4347 34.4241C19.3845 32.1973 21.5737 30.2556 23.7588 28.8777C25.9573 27.4914 28.0733 26.7246 29.8971 26.7246C31.7209 26.7246 33.8369 27.4914 36.0353 28.8777C38.2204 30.2556 40.4097 32.1973 42.3595 34.4241C44.3083 36.6498 45.996 39.1352 47.1922 41.582C48.394 44.0403 49.0693 46.3972 49.0693 48.3818C49.0693 50.1004 48.4671 51.3807 47.429 52.2497C46.3677 53.1381 44.7375 53.6897 42.532 53.6897C40.1759 53.6897 38.1974 53.036 36.1976 52.3281C36.0833 52.2877 35.9687 52.2469 35.8538 52.2061C33.9985 51.5464 32.0456 50.852 29.8971 50.852C27.7738 50.852 25.8379 51.5412 23.9939 52.1977C23.8711 52.2414 23.7487 52.285 23.6267 52.3282C21.6301 53.0354 19.6417 53.6897 17.2621 53.6897C15.0566 53.6897 13.4264 53.1381 12.3652 52.2497C11.327 51.3807 10.7249 50.1004 10.7249 48.3818ZM7.15424 19.5943C9.47881 18.996 12.4483 20.9363 13.46 24.5663C14.4716 28.1959 12.91 31.2626 10.6134 31.8537C8.28887 32.4521 5.31935 30.5117 4.30765 26.8817C3.29605 23.2521 4.85764 20.1855 7.15424 19.5943ZM49.1797 31.8549C46.8831 31.2637 45.3215 28.1972 46.333 24.5677C47.3458 20.9373 50.3144 18.9972 52.6389 19.5955C54.9355 20.1866 56.4971 23.2532 55.4855 26.8829C54.4726 30.5131 51.504 32.4531 49.1797 31.8549ZM43.6387 14.4747C43.0583 16.7668 41.9288 18.6179 40.6275 19.7733C39.3226 20.9319 37.941 21.3241 36.7424 20.9846C35.5336 20.6421 34.504 19.5538 33.9135 17.8368C33.3267 16.1307 33.226 13.9204 33.8062 11.629C34.3866 9.33676 35.5161 7.48543 36.8174 6.32987C38.1222 5.17111 39.5037 4.77903 40.7021 5.11898C41.9113 5.46199 42.9409 6.55051 43.5314 8.2673C44.1181 9.97317 44.2189 12.1833 43.6387 14.4747Z" stroke="#2E2E2E" stroke-width="2" />
</svg>
